<?xml version="1.0" encoding="utf-8"?>
<!-- Generator: Adobe Illustrator 23.0.1, SVG Export Plug-In . SVG Version: 6.00 Build 0)  -->
<svg version="1.1" id="Layer_1" xmlns="http://www.w3.org/2000/svg" xmlns:xlink="http://www.w3.org/1999/xlink" x="0px" y="0px"
	 viewBox="0 0 8127.01 1592.62" style="enable-background:new 0 0 8127.01 1592.62;" xml:space="preserve">
<style type="text/css">
	.st0{fill:#FFFFFF;}
</style>
<path class="st0" d="M1641.59,699.98h-3.27h-96.86h-35.03c-217.51,0-649,0-927.86,0c31.93-227.52,227.75-403.19,463.93-403.19
	c188.34,0,350.98,111.75,425.38,272.38h141.01c-81.45-234.44-304.56-403.19-566.38-403.19c-308.41,0-563.13,234.14-595.82,534
	c-62.64,0-106.55,0-122.3,0c-99.39,0-153.42,130.81-153.42,130.81h275.72h131.89h927.86c-31.93,227.52-227.75,403.19-463.93,403.19
	c-188.35,0-350.99-111.75-425.38-272.38H476.12c81.45,234.44,304.57,403.19,566.39,403.19c308.41,0,563.13-234.14,595.82-534
	c1.09,0,2.17,0,3.27,0c27.29,0,58.12,0,89.86,0c99.39,0,153.42-130.81,153.42-130.81L1641.59,699.98L1641.59,699.98z"/>
<g>
	<path class="st0" d="M2550.75,375.67c102.53,0,372.32,44.24,372.32,407.93s-269.8,407.93-372.32,407.93
		s-372.32-44.24-372.32-407.93S2448.22,375.67,2550.75,375.67z M2550.75,1054.48c87.4,0,210.43-53.96,210.43-270.87
		c0-216.93-123.03-270.87-210.43-270.87c-87.42,0-210.46,53.94-210.46,270.87C2340.29,1000.51,2463.32,1054.48,2550.75,1054.48z"/>
	<path class="st0" d="M3052.72,396.18h391.75c206.1,0,243.89,152.16,243.89,219.08c0,85.25-43.16,158.61-119.78,184.52
		c63.67,28.06,98.2,51.81,98.2,196.43c0,113.3,0,141.36,34.53,154.31v20.51h-179.15c-10.8-36.68-17.28-76.62-17.28-156.49
		c0-105.75-6.48-146.76-126.26-146.76h-167.27v303.25h-158.64V396.18H3052.72z M3401.28,737.19c84.2,0,125.18-29.13,125.18-105.75
		c0-41.01-18.33-101.45-113.3-101.45h-201.8v207.2H3401.28z"/>
	<path class="st0" d="M3832.03,396.18h376.62c189.95,0,238.51,118.71,238.51,198.58c0,111.15-62.59,142.44-94.98,158.64
		C4447.17,789.01,4472,864.55,4472,941.17c0,61.52-25.91,119.78-66.92,159.72c-44.26,43.16-86.35,70.14-244.99,70.14h-328.06
		L3832.03,396.18L3832.03,396.18z M3987.42,699.43h189.95c63.67,0,114.38-24.83,114.38-86.35c0-63.67-45.31-83.1-118.71-83.1
		h-185.62V699.43z M3987.42,1037.22H4186c78.8,0,124.11-34.53,124.11-113.33c0-67.99-58.26-93.87-116.56-93.87h-206.13V1037.22z"/>
	<path class="st0" d="M5105.58,649.8c-12.93-46.41-37.76-133.84-171.57-133.84c-77.72,0-192.1,51.81-192.1,270.87
		c0,139.24,55.04,264.42,192.1,264.42c89.57,0,152.16-50.74,171.57-145.69h161.89c-32.38,168.34-142.46,285.97-336.71,285.97
		c-206.13,0-353.97-139.21-353.97-406.86c0-270.87,156.49-409.01,356.12-409.01c232.04,0,325.94,159.72,334.56,274.12h-161.89V649.8
		z"/>
	<path class="st0" d="M5500.72,1171.03H5330.2l276.27-774.85h186.7l273.05,774.85H5890.3l-49.64-159.72h-285.97L5500.72,1171.03z
		 M5597.84,877.51h197.48L5699.3,571h-2.18L5597.84,877.51z"/>
	<path class="st0" d="M6169.96,396.18h391.75c206.1,0,243.89,152.16,243.89,219.08c0,85.25-43.16,158.61-119.78,184.52
		c63.67,28.06,98.2,51.81,98.2,196.43c0,113.3,0,141.36,34.53,154.31v20.51H6639.4c-10.8-36.68-17.28-76.62-17.28-156.49
		c0-105.75-6.48-146.76-126.26-146.76H6328.6v303.25h-158.64V396.18z M6518.52,737.19c84.2,0,125.18-29.13,125.18-105.75
		c0-41.01-18.33-101.45-113.3-101.45h-201.8v207.2H6518.52z"/>
	<path class="st0" d="M7519.04,533.24h-411.16v162.94h377.72v137.06h-377.72v200.73h429.51v137.06h-588.15V396.18h569.8
		L7519.04,533.24L7519.04,533.24z"/>
</g>
</svg>
